<svg width="34" height="34" viewBox="0 0 34 34" fill="none" xmlns="http://www.w3.org/2000/svg">
<circle cx="17" cy="17" r="16.5" fill="#479EDA" stroke="white"/>
<path d="M23.6667 10.7653L21.3452 22.0364C21.3452 22.0364 21.0191 22.8197 20.1284 22.4445L16.8298 20.0082L14.7162 21.8673C14.7162 21.8673 14.5507 21.9892 14.3706 21.9142L14.7746 18.4573L14.7899 18.4689L14.7989 18.3965C14.7989 18.3965 20.7365 13.2558 20.9798 13.0353C21.2231 12.8149 21.1404 12.768 21.1404 12.768C21.155 12.5006 20.7024 12.768 20.7024 12.768L12.8326 17.5851L12.8335 17.5877L12.8281 17.5852L9.55269 16.5205C9.55269 16.5205 9.0514 16.3469 9.00273 15.9717C8.95406 15.5965 9.57216 15.3948 9.57216 15.3948L22.6008 10.4698C22.5959 10.4698 23.6667 10.0149 23.6667 10.7653Z" fill="white"/>
</svg>
