<svg width="34" height="34" viewBox="0 0 34 34" fill="none" xmlns="http://www.w3.org/2000/svg">
<circle cx="17" cy="17" r="16.5" fill="#29A71A" stroke="white"/>
<path d="M25 17C25 21.4183 21.4187 25 17.0001 25C15.5974 25 14.2796 24.6387 13.133 24.0046L10.2398 24.9311C9.60312 25.135 9.0069 24.5225 9.22141 23.8849L10.148 21.1307C9.41953 19.9253 9 18.5115 9 17C9 12.5817 12.5817 9 17.0001 9C21.419 9 25 12.5817 25 17ZM21.0399 18.8425C20.9904 18.7609 20.8599 18.7116 20.664 18.6136C20.4677 18.5157 19.5033 18.041 19.3241 17.9759C19.1443 17.9106 19.0132 17.8777 18.8826 18.0739C18.7521 18.2702 18.3762 18.7116 18.2616 18.8425C18.1472 18.9737 18.0329 18.9901 17.8366 18.8919C17.6407 18.7939 17.009 18.5866 16.2599 17.9188C15.677 17.3991 15.2834 16.7575 15.169 16.561C15.0547 16.3648 15.157 16.2588 15.255 16.1612C15.3433 16.0732 15.4512 15.9321 15.5492 15.8177C15.6475 15.7031 15.6801 15.6216 15.7451 15.4905C15.8108 15.3597 15.7781 15.2453 15.7288 15.1469C15.6799 15.0489 15.2874 14.084 15.1241 13.6913C14.9607 13.299 14.7976 13.3643 14.683 13.3643C14.5687 13.3643 14.4378 13.3479 14.3071 13.3479C14.1763 13.3479 13.9638 13.397 13.784 13.5931C13.6044 13.7895 13.0979 14.2639 13.0979 15.2287C13.0979 16.1936 13.8003 17.1259 13.8986 17.2566C13.9965 17.3872 15.2548 19.4317 17.2483 20.2169C19.2421 21.0017 19.2421 20.7399 19.6017 20.707C19.9609 20.6744 20.7616 20.2328 20.9256 19.7751C21.0886 19.3167 21.0886 18.9242 21.0399 18.8425Z" fill="white"/>
</svg>
