<svg width="34" height="34" viewBox="0 0 34 34" fill="none" xmlns="http://www.w3.org/2000/svg">
<circle cx="17" cy="17" r="16.5" fill="#EE1717"/>
<circle cx="17" cy="17" r="16.5" fill="url(#paint0_linear)"/>
<circle cx="17" cy="17" r="16.5" stroke="white"/>
<path fill-rule="evenodd" clip-rule="evenodd" d="M17 9C14.8273 9 14.5549 9.00921 13.7016 9.04814C12.8501 9.08701 12.2686 9.22223 11.7597 9.42001C11.2336 9.62445 10.7875 9.898 10.3427 10.3427C9.89797 10.7875 9.62442 11.2336 9.41997 11.7597C9.2222 12.2686 9.08698 12.8501 9.04811 13.7017C9.00918 14.5549 9 14.8273 9 17C9 19.1727 9.00918 19.4452 9.04811 20.2984C9.08698 21.15 9.2222 21.7315 9.41997 22.2404C9.62442 22.7664 9.89797 23.2126 10.3427 23.6573C10.7875 24.1021 11.2336 24.3756 11.7597 24.5801C12.2686 24.7778 12.8501 24.9131 13.7016 24.9519C14.5549 24.9909 14.8273 25 17 25C19.1727 25 19.4451 24.9909 20.2984 24.9519C21.1499 24.9131 21.7314 24.7778 22.2403 24.5801C22.7664 24.3756 23.2126 24.1021 23.6573 23.6573C24.102 23.2126 24.3756 22.7664 24.58 22.2404C24.7778 21.7315 24.913 21.15 24.9519 20.2984C24.9908 19.4452 25 19.1727 25 17C25 14.8273 24.9908 14.5549 24.9519 13.7017C24.913 12.8501 24.7778 12.2686 24.58 11.7597C24.3756 11.2336 24.102 10.7875 23.6573 10.3427C23.2126 9.898 22.7664 9.62445 22.2403 9.42001C21.7314 9.22223 21.1499 9.08701 20.2984 9.04814C19.4451 9.00921 19.1727 9 17 9ZM17 12.8919C14.7312 12.8919 12.8919 14.7312 12.8919 17C12.8919 19.2689 14.7312 21.1081 17 21.1081C19.2689 21.1081 21.1082 19.2689 21.1082 17C21.1082 14.7312 19.2689 12.8919 17 12.8919ZM14.3333 17C14.3333 18.4728 15.5273 19.6667 17 19.6667C18.4728 19.6667 19.6667 18.4728 19.6667 17C19.6667 15.5273 18.4728 14.3333 17 14.3333C15.5273 14.3333 14.3333 15.5273 14.3333 17ZM22.2306 12.7296C22.2306 13.2598 21.8008 13.6896 21.2706 13.6896C20.7404 13.6896 20.3106 13.2598 20.3106 12.7296C20.3106 12.1994 20.7404 11.7696 21.2706 11.7696C21.8008 11.7696 22.2306 12.1994 22.2306 12.7296Z" fill="white"/>
<defs>
<linearGradient id="paint0_linear" x1="24.3333" y1="0.999999" x2="11" y2="33" gradientUnits="userSpaceOnUse">
<stop stop-color="#950098"/>
<stop offset="0.494792" stop-color="#E80606"/>
<stop offset="1" stop-color="#FFD600"/>
</linearGradient>
</defs>
</svg>
